Coordinates
version=1
nRows=10
nColumns=33
inDegrees=yes

Units are S.I. units (second, meters, Newtons, ...)
Angles are in degrees.

endheader
time	ground_thorax_rot_x	ground_thorax_rot_y	ground_thorax_rot_z	ground_thorax_tx	ground_thorax_ty	ground_thorax_tz	clav_prot_r	clav_elev_r	scapula_abduction_r	scapula_elevation_r	scapula_upward_rot_r	scapula_winging_r	shoulder_elv_r	plane_of_elev_r	axial_rot_r	elbow_flexion_r	pro_sup_r	wrist_flex_r	wrist_dev_r	clav_prot_l	clav_elev_l	scapula_abduction_l	scapula_elevation_l	scapula_upward_rot_l	scapula_winging_l	shoulder_elv_l	plane_of_elev_l	axial_rot_l	elbow_flexion_l	pro_sup_l	wrist_flex_l	wrist_dev_l
      4.58000000	    -40.94852443	     -6.48619335	      1.16733684	    -56.36510109	    801.92087110	      8.53942663	      6.24920562	    -45.00000000	     45.00000000	    -45.00000000	    -12.49201318	  -2251.09109059	  -1016.59534566	     28.88863080	     75.59174464	   3250.57723005	      9.87571128	     18.20980483	     11.35459762	     16.49024659	     41.18598113	    -45.00000000	    -40.61349309	    -28.57011090	   1880.02571694	  -1374.74331614	     24.62756899	    -22.47714000	   1084.92583705	     12.92253173	     13.88385365	    -17.72975913
      4.59000000	    -40.79318841	     -6.88173252	      1.21041159	    -54.41581233	    799.65238642	      8.82024282	      6.39181662	    -45.00000000	     45.00000000	    -45.00000000	    -12.88163585	  -2250.73274100	  -1016.71929396	     28.68780640	     75.83059484	   3250.48509032	      9.59213400	     17.90247767	     11.36558508	     16.69648500	     40.90406224	    -45.00000000	    -40.27951615	    -28.76937380	   1879.82758316	  -1374.69471625	     24.56625365	    -22.32730440	   1084.72883335	     13.11394086	     14.01324874	    -17.61745672
      4.60000000	    -40.58391262	     -7.14634318	      1.20171696	    -52.77043595	    797.66674827	      9.04142459	      6.45632954	    -45.00000000	     45.00000000	    -45.00000000	    -13.08574173	  -2250.60363362	  -1016.92306388	     28.55112963	     76.41037315	   3250.34200887	      9.22520349	     17.74663660	     11.32636341	     16.46895981	     40.61402406	    -45.00000000	    -39.91046972	    -28.67711948	   1879.81442646	  -1374.87414302	     24.57410257	    -22.53361817	   1084.61331534	     13.54859837	     13.90910360	    -17.58781234
      4.61000000	    -40.37549294	     -7.74125321	      1.44979620	    -51.43803733	    795.94732253	      9.20508407	      6.87101857	    -45.00000000	     45.00000000	    -45.00000000	    -13.78526941	  -2250.72871626	  -1017.10498948	     28.75871738	     76.99204493	   3250.21318085	      8.90050985	     17.56759408	     11.06615307	     15.80578198	     40.08625322	    -45.00000000	    -39.32970960	    -29.09811146	   1879.93030299	  -1374.48722789	     24.46508590	    -22.75101173	   1084.55252194	     13.95312182	     13.85810883	    -17.55046478
      4.62000000	    -40.24863382	     -7.74695149	      1.11895459	    -50.42973826	    794.47686160	      9.30584172	      6.66685898	    -45.00000000	     45.00000000	    -45.00000000	    -13.58365259	  -2250.52444286	  -1017.19700749	     28.54658984	     77.25193671	   3250.12529475	      8.55701236	     17.45269774	     11.16838028	     16.03055753	     40.00885847	    -45.00000000	    -39.16055311	    -28.60428516	   1879.85211746	  -1374.65063961	     24.42050777	    -22.83830678	   1084.32703903	     14.37949787	     13.76335553	    -17.53887743
      4.63000000	    -40.10021476	     -7.78393883	      0.75515879	    -49.74953199	    793.23062513	      9.34004722	      6.51816930	    -45.00000000	     45.00000000	    -45.00000000	    -13.33255619	  -2250.37586206	  -1017.32891326	     28.40846986	     77.61692664	   3249.98059506	      8.25168587	     17.34464773	     11.22801963	     16.00453927	     39.93499387	    -45.00000000	    -38.96960423	    -28.23997306	   1879.84014934	  -1374.74919920	     24.39812639	    -22.86474031	   1084.16521318	     14.81517473	     13.66746757	    -17.55057931
      4.64000000	    -39.91906173	     -8.01085604	      0.57680656	    -49.39739210	    792.18406932	      9.31022805	      6.42693719	    -45.00000000	     45.00000000	    -45.00000000	    -13.35942751	  -2250.26766113	  -1017.29490856	     28.30382146	     77.99555281	   3249.94202854	      8.06283310	     17.26354901	     11.31546344	     15.99563363	     39.53565525	    -45.00000000	    -38.74981213	    -27.98386419	   1879.86643991	  -1374.85458867	     24.24015391	    -22.84188738	   1084.04964112	     15.18680435	     13.53050447	    -17.58726994
      4.65000000	    -39.75634664	     -8.22169578	      0.45384144	    -49.37080746	    791.30914737	      9.22099798	      6.40191851	    -45.00000000	     45.00000000	    -45.00000000	    -13.39798779	  -2250.28597452	  -1017.31881527	     28.14556882	     78.26537460	   3249.96146395	      7.97324329	     17.26135186	     11.40596105	     15.92115371	     39.61214336	    -45.00000000	    -38.42604789	    -27.84445367	   1880.07576475	  -1374.81716468	     24.19266727	    -22.75293466	   1084.05346479	     15.48394887	     13.22419183	    -17.65583092
      4.66000000	    -39.71603409	     -8.20760064	      0.08547599	    -49.66782202	    790.58961160	      9.07913126	      6.39683952	    -45.00000000	     45.00000000	    -45.00000000	    -13.40157506	  -2250.31207402	  -1017.54393031	     28.15019440	     78.46339869	   3249.75907005	      7.99205268	     17.17918770	     11.35427407	     15.89222030	     39.56821723	    -45.00000000	    -38.46312581	    -27.76028110	   1880.06209568	  -1374.76373968	     24.25979812	    -22.80835169	   1084.01862132	     15.83615461	     13.22773889	    -17.71298078
      4.67000000	    -39.58857094	     -8.38328192	     -0.04457851	    -50.28533610	    790.00126430	      8.88690107	      6.34835253	    -45.00000000	     45.00000000	    -45.00000000	    -13.48567331	  -2250.31024416	  -1017.46757991	     27.98528776	     78.69032453	   3249.81437594	      8.13676267	     17.22906829	     11.50437790	     15.85754999	     39.67169838	    -45.00000000	    -38.36817349	    -27.64230288	   1880.15037554	  -1374.85371938	     24.20212050	    -22.66266017	   1083.91472005	     16.13251622	     12.91216441	    -17.76866097
